<svg width="255" height="172" fill="none" xmlns="http://www.w3.org/2000/svg"><path d="M15.598 171.873s-31.25-33.378-5.285-69.515c23.036-32.063 49.893-29.867 69.598-16.86 8.393 5.54 32.591.683 53.185-31.942C161.181 9.064 258.535 36.048 240.785 104.5c-8.59 33.126 26.143 34.329 8.444 67.442l-233.631-.07z" fill="#EDFCF4"/><path d="M124.319 93.365c0-.065.355-7.324-3.169-8.993l.248-.238c1.615.561 3.404 2.295 4.126 4.742.532 1.82.127 2.22.13 2.289l-1.335 2.2z" fill="#599DAD"/><path d="M106.367 22.213a22.05 22.05 0 0 0 5.086 14.114 18.457 18.457 0 0 1 4.275 11.771v6.2c.004 1.899.764 3.719 2.114 5.062a7.24 7.24 0 0 0 5.089 2.104h11.526a7.235 7.235 0 0 0 5.088-2.104 7.163 7.163 0 0 0 2.115-5.062v-6.21c0-4.31 1.547-8.457 4.296-11.788a22.166 22.166 0 0 0 4.989-12.369 22.134 22.134 0 0 0-3.022-12.984 22.297 22.297 0 0 0-9.945-8.928A22.441 22.441 0 0 0 123.828.53c-9.992 2.21-17.461 11.077-17.461 21.682z" fill="#FCEBD9"/><path d="M106.367 22.213a22.05 22.05 0 0 0 5.086 14.114 18.457 18.457 0 0 1 4.275 11.77v6.2c.004 1.9.764 3.72 2.114 5.063a7.24 7.24 0 0 0 5.089 2.104h1.77a7.238 7.238 0 0 0 5.088-2.104 7.162 7.162 0 0 0 2.114-5.063v-6.21c0-4.309 1.547-8.456 4.297-11.787a22.17 22.17 0 0 0 4.712-10.162 22.11 22.11 0 0 0-.865-11.159 22.204 22.204 0 0 0-6.222-9.324A22.378 22.378 0 0 0 123.824.532c-9.988 2.208-17.457 11.076-17.457 21.681z" fill="#FAE2C9"/><path d="M123.735 41.784c.368.39 1.341 1.026 1.753 1.303.912.603 2.607.988 2.96 5.336-.018 3.863.008 13.58.008 13.688h.434c0-.103-.025-9.402-.009-13.421h.009c0-.006 0-.103-.008-.264 0-.429 0-.787.008-1.05.03-2.501 2.784-4.235 2.811-4.25 1.806-1.1 3.8-3.188 3.8-5.816a6.773 6.773 0 0 0-2.03-4.75 6.845 6.845 0 0 0-4.798-1.96 6.846 6.846 0 0 0-4.799 1.96 6.776 6.776 0 0 0-2.029 4.75c.003 1.742.69 3.21 1.89 4.474zm.292-.102a6.326 6.326 0 0 1-1.746-4.37c0-3.508 2.869-6.106 6.394-6.106s6.395 2.598 6.395 6.107c0 2.501-1.743 4.646-3.473 5.663a8.127 8.127 0 0 0-1.493 1.112c-.808.762-1.33 1.602-1.54 2.462-.369-1.277-.928-2.614-2.825-3.59a7.71 7.71 0 0 1-1.712-1.281v.003z" fill="#EE9849"/><path d="m134.416 61.464-.025.19-.317 2.416-.083.636-.085.64-.315 2.425-.084.636v.006l-.083.642-.047.353c-.16 1.225-1.567 2.162-3.251 2.162h-3.794a4.38 4.38 0 0 1-1.141-.15 3.739 3.739 0 0 1-.883-.367l-.021-.011a2.939 2.939 0 0 1-.575-.436 2.072 2.072 0 0 1-.628-1.175l-.137-.942-.085-.59v-.013l-.084-.577-.323-2.239-.083-.588v-.012l-.083-.58-.349-2.425 12.476-.001z" fill="#AFCDFB"/><path d="M132.91 61.464h-2.143c-3.46.995-6.892 1.978-8.481 2.424l.083.581v.012l.083.588c1.288-.355 4.379-1.231 11.936-3.415l.025-.19h-1.503zM122.862 67.885v.013l.085.59c1.489-.416 4.561-1.294 10.958-3.139l.085-.64.083-.636c-4.042 1.165-8.936 2.57-11.296 3.238l.085.574zM124.288 71.037l.021.011c.277.16.574.283.884.367 1.753-.501 4.359-1.25 8.232-2.366l.083-.64v-.007l.084-.636c-3.459.996-7.426 2.137-9.88 2.835.173.168.366.315.576.436z" fill="#9ABCEF"/><path d="M115.115 78.987s-.403 3.734 1.563 5.321c1.965 1.588 5.557.43 5.557.43s.402-3.734-1.564-5.322c-1.966-1.588-5.556-.429-5.556-.429zM123.718 106.981c-.067-.366-1.341-8.914 1.914-18.441 3.124-9.154 1.394-16.913 1.38-16.991h2.3c.058.331.218 7.949-2.23 18.388-2.203 9.393 1.911 17.044 1.031 17.044h-4.395z" fill="#599DAD"/><path d="M128.546 81.744c.012-.049 1.109-6.312 4.062-7.024-1.32.17-2.997 1.11-3.935 2.862-.697 1.3-.452 1.669-.466 1.721l.339 2.441z" fill="#599DAD"/><path d="M71.41 128.266H38.228a.816.816 0 0 0-.819.814v2.695c0 .45.367.815.82.815H71.41a.817.817 0 0 0 .819-.815v-2.695a.816.816 0 0 0-.82-.814z" fill="#F99746"/><path d="m45.847 132.589-.413 2.53-5.989 36.625a.294.294 0 0 1-.113.168.304.304 0 0 1-.196.057c-.31 0-.547-.213-.516-.458l4.745-37.505.18-1.417h2.302z" fill="#EFCBAB"/><path d="m45.847 132.589-.413 2.53c-.284-1.009-2.062-1.113-2.062-1.113l.18-1.417h2.295z" fill="#CCA07F"/><path d="M70.505 171.969a.304.304 0 0 1-.195-.057.294.294 0 0 1-.114-.168l-5.988-36.625-.258-1.579-.156-.951h2.3l.18 1.417.141 1.111 4.605 36.391c.032.248-.207.461-.514.461z" fill="#EFCBAB"/><path d="M66.411 135.117c-.585-1.206-2.464-1.576-2.464-1.576l-.156-.951h2.3l.18 1.417.14 1.11z" fill="#CCA07F"/><path d="M60.522 43.202c-.007-.206-.17-2.453-3.61-2.566 0 0 1.69.2 1.983.94 0 0-1.152-.914-2.089-.616-.938.297-1.487 1.925-1.492 2.462-.005.537.515 2.269 1.11 2.417.238.048.483.048.721 0-.17.264-.323.538-.46.82-1.372 2.8.042 5.541 1.203 5.233.745-.194.955 1.07.955 1.07l7.233-5.825s-2.655-5.475-5.554-3.935z" fill="#2C3A64"/><path d="M78.27 75.288s1.433-.278 1.76 0c.329.278 1.882 1.847 1.548 2.36-.334.513-1.929-.427-2.26-.513-.333-.086-1.26-.45-1.26-.45l.211-1.397z" fill="#FFB27D"/><path d="m63.04 125.698-1.536.57s-6.673-9.208-7.494-17.309c-.147-1.446-.103-2.848.22-4.141l-.18-1.026c-.052-.308-.118-.675-.191-1.096-.218-1.232-.516-2.929-.858-4.856a1322.368 1322.368 0 0 0-2.592-14.267l.412-.133 4.478-1.436.928-2.926 3.336-.873s.744 1.45 1.41 8.3c.123.898.235 1.89.32 2.963.306 4 .2 8.02-.318 11.998a63.921 63.921 0 0 1-.586 3.683c-.175.923-.206 2.188-.128 3.636.336 6.622 2.78 16.913 2.78 16.913z" fill="#2B478B"/><path d="m61.292 89.467-7.239 14.325c-.052-.308-.118-.675-.191-1.096-.218-1.232-.516-2.929-.858-4.856a1319.917 1319.917 0 0 0-2.592-14.267l.412-.133 4.478-1.436.929-2.926 3.335-.873s.745 1.45 1.41 8.3c.12.897.232 1.89.316 2.962z" fill="#233862"/><path d="m58.107 80.042-.169-1.43c-2.808.742-10.313-2.074-10.313-2.074s-2.72 2.38-2.364 8.083c.174 2.785.493 14.616.825 18.117.12 1.268.225 2.171.268 2.532a.498.498 0 0 1-.081.308 16.401 16.401 0 0 0-1.228 2.565c-3.266 8.657.503 19.318.503 19.318l.977-.383s2.144-11.863 3.886-17.104c.296-.89.58-1.588.84-2.005.756-1.217 1.46-3.205 2.098-5.569 1.206-4.468 2.176-10.283 2.823-14.77.092.003 1.935-7.588 1.935-7.588z" fill="#2B478B"/><path d="m78.27 75.288-.207 1.4s-.093 0-.256-.012c-.515-.035-1.753-.102-3.162-.254-2.116-.205-4.627-.578-5.627-1.191-1.523-.924-4.022-3.76-5.65-6.594a1.905 1.905 0 0 1-.117-.205c-.848-1.505-1.444-2.996-1.487-4.188-.037-.639.03-1.279.197-1.897a4.83 4.83 0 0 1 .86-1.711c.044-.074.099-.14.163-.197a4.018 4.018 0 0 1 1.104-.937c.28-.116.582.023.896.358v.012c.32.355.59.752.802 1.18.011.011.024.023.024.034.058.103.115.22.185.347.02.024.035.052.047.08.128.268.255.545.383.834 1.43 3.1 2.953 7.798 4.22 9.196.547.601 3.047 1.781 5.035 2.66a93.915 93.915 0 0 0 2.59 1.085z" fill="#FFB27D"/><path d="M63.472 62.693c-.882.41-1.947.684-3.235.754-4.828.263-5.925-3.948-6.125-6.743a4.04 4.04 0 0 1 1.658-.206c.342.019.7.054.994.09.59-.308 1.65-1.798 2.269-4.292l.206.095 3.483 1.63s-.37 1.13-.644 2.209c-.212.844-.366 1.66-.238 1.889.275.11.44.18.44.18a23.64 23.64 0 0 1 1.192 4.394z" fill="#FFB27D"/><path d="M62.722 54.022s-.37 1.128-.644 2.208c-2.036-.567-2.654-2.696-2.841-3.838l3.485 1.63z" fill="#ED985F"/><path d="M63.15 55.212s-4.872-1.122-4.124-4.13c.747-3.009.618-5.179 3.766-4.59 3.148.59 3.46 1.885 3.455 2.95-.004 1.065-1.809 5.984-3.096 5.77z" fill="#FFB27D"/><path d="M66.523 47.733c-.524-1.09-1.14-1.032-1.526-.838-2.29-2.107-4.538-.386-4.538-.386-.864 2.077-2.738 2.927-2.738 2.927s.749.762 2.919.746c.662 0 1.328-.308 1.934-.726-.756.74-1.61 1.375-2.539 1.885 2.716-.513 4.538-3.644 4.724-3.977.23.338.67 1.058.706 1.665.05.826-.235 2.43.24 2.49.003 0 1.603-2.15.818-3.785z" fill="#2C3A64"/><path d="M66.435 62.34c-.177-.523-1.35-2.565-1.35-2.565-.004 0-.745-.68-2.804-1.485.032.12.911 3.284.59 3.965-.32.681-6.497-1.533-6.835-2.039-.27-.41-.278-2.557-.27-3.394v-.336s-2.304-.307-3.6.206c.328.743.563 1.524.7 2.325.017.116.032.231.044.347.025.244.031.488.018.732-.018.317-.182.597-.445.872a6.789 6.789 0 0 1-.928.766c-.24.172-.497.354-.763.55-.022 1.436.08 3.796-.187 6.315a4.252 4.252 0 0 1-.62 1.792 4.369 4.369 0 0 1-.455.615c-1.361 1.519-3.775 4.546-3.244 6.43.039 1.777 15.103 4.112 14.782 2.156 0 0 2.269-10.855 3.487-13.476.043-.096.083-.19.12-.286.392-1.034.325-2.097.193-3.05.695-.473 1.567-.44 1.567-.44z" fill="#F99746"/><path d="M57.017 75.96c-2.972-.032-5.488-3.102-7.026-5.555.339-.544.55-1.156.619-1.792.267-2.519.165-4.88.188-6.315.266-.196.522-.378.762-.55.331-.227.642-.484.928-.766 2.433 4.092 8.557 15.02 4.529 14.977z" fill="#ED7D2B"/><path d="m68.248 77.567-.413 1.48s-.515-.092-1.325-.242c-.244-.047-.384-.08-.384-.08-.65-.128-1.43-.301-2.278-.487h-.012c-1.453-.347-3.08-.763-4.453-1.231-.965-.336-1.802-.694-2.372-1.053a1.403 1.403 0 0 1-.163-.115c-1.36-.984-2.976-3.875-4.228-6.977-.174-.428-.337-.856-.5-1.272-.548-1.432-.99-2.901-1.326-4.396a12.32 12.32 0 0 1-.31-2.093 5.007 5.007 0 0 1-.011-.59c.023-3.355 1.697-3.817 1.697-3.817.035-.012.07-.024.117-.035.29-.047.593.15.906.532.396.474.814 1.249 1.245 2.186.662 1.492 1.36 3.424 2.011 5.344.36 1.052.709 2.105 1.058 3.078.197.59.395 1.145.581 1.654.361.972.686 1.757.977 2.257.186.325.722.776 1.43 1.284 1.233.89 3.034 1.967 4.604 2.846.65.37 1.268.705 1.78.983.822.455 1.369.744 1.369.744z" fill="#FFB27D"/><path d="M54.432 59.389c-2.24-.616-3.966 1.128-3.966 1.128.03-3.349 1.704-3.807 1.704-3.807.675-.281 1.455.88 2.262 2.679z" fill="#F99746"/><path d="M51.235 128.265H43.5s-.186-1.173.218-2.064c.388-.854.994-1.242.85-2.276.491.504 1.292 1.068 2.41.919.137.22.885 1.403 1.341 1.731.505.362 2.76.233 2.916 1.69zM67.849 128.265h-7.735s-.29-1.232.218-2.064c.45-.739.278-1.16-.056-1.772.411.177.857.261 1.304.244.386-.021.793-.196 1.151-.402.333.378 1.753 1.986 2.204 2.304.503.362 2.758.233 2.914 1.69z" fill="#233862"/><path d="m70.658 89.05 1.07.436 5.13 2.09c.982.397 2.081.391 3.059-.016a3.998 3.998 0 0 0 2.157-2.156l.503-1.221c.326-.212.66-.44 1.004-.685 5.606-4.013 11.668-.108 11.668-.108a.992.992 0 0 0 .08-.42 1.034 1.034 0 0 0-.246-.636c-3.776-2.61-9.16-2.923-11.527-2.923-.75 0-1.197.031-1.197.031l-.143-.058c.96-3.227-.212-6.514-2.827-7.58a4.597 4.597 0 0 0-1.728-.338c-1.11-.005-2.235.374-3.237 1.06a7.629 7.629 0 0 0-2.4 2.715 1.249 1.249 0 0 0-1.477.719l-1.84 4.463a3.536 3.536 0 0 0 .015 2.714 3.563 3.563 0 0 0 1.936 1.913zm7.442-9.582-.29-.118a1.036 1.036 0 0 0-1.347.562l-2.092-.854a1.231 1.231 0 0 0-1.517.513l-.31-.126a7.017 7.017 0 0 1 2.425-2.617c1.008-.625 2.128-.913 3.202-.772.346.043.684.132 1.006.264 2.335.952 3.372 3.918 2.522 6.858l-.224-.09a1.215 1.215 0 0 0-.722-1.425l-2.092-.854a1.021 1.021 0 0 0-.56-1.34z" fill="#C94C43"/><path d="M82.577 88.19c.326-.212.66-.44 1.004-.685 5.606-4.013 11.668-.107 11.668-.107a.994.994 0 0 0 .08-.421c-.848-.556-4.028-2.406-7.97-1.774-4.618.738-5.453 1.377-4.782 2.987zM70.658 89.05l1.07.436c-1.604-.871.382-4.553 1.548-6.984 1.165-2.43 2.92-1.32 2.92-1.32a1.392 1.392 0 0 1 1.265-.77c.045-.785.648-.943.648-.943l-.29-.118a1.036 1.036 0 0 0-1.347.563l-2.101-.856a1.231 1.231 0 0 0-1.517.513l-.31-.126a7.017 7.017 0 0 1 2.425-2.617c1.008-.625 2.128-.913 3.202-.771a2.296 2.296 0 0 1-.515-.588c-1.111-.005-2.235.373-3.238 1.06a7.627 7.627 0 0 0-2.399 2.715 1.249 1.249 0 0 0-1.478.718l-1.838 4.463a3.536 3.536 0 0 0 .017 2.715 3.563 3.563 0 0 0 1.938 1.91z" fill="#B23B38"/><path d="M73.061 79.001c-.745.308-1.79 1.4-3.464.741a26.228 26.228 0 0 0-3.082-.938c-.244-.046-.383-.08-.383-.08l.663-1.92c.026.011.053.019.081.023.43.093 2.616.555 3.639.324 1.15-.266 3.08 1.11 3.08 1.11s.21.44-.534.74z" fill="#FFB27D"/><path d="M94.07 90.618c0-.695 1.263-2.84 1.263-2.84s1.264 2.145 1.264 2.84a1.253 1.253 0 0 1-.771 1.194 1.272 1.272 0 0 1-1.4-.282 1.258 1.258 0 0 1-.356-.912z" fill="#AFCDFB"/><path d="M116.73 65.13s-3.184-4.473-6.807-5.786c0 0 1.353 10.492-.625 10.623-1.977.13-.66-11.8-.66-11.8s-9.42-5.205-13.247-5.06c0 0 5.416 10.484 3.467 10.126-1.95-.358-8.089-11.01-8.089-11.01s-9.834-2.408-11.773 3.358c-1.94 5.767.464 8.848 1.915 9.3 1.45.453 10.907.88 10.59 2.088-.316 1.206-6.814 2.788-10.313 1.481 0 0 3.36 9.875 8.542 9.686 5.182-.188 6.965-3.269 10.17-3.327 3.206-.059 5.487.933 3.842 1.694-1.645.761-7.014-.127-9.718 1.902-2.704 2.03-4.87 3.25-.142 4.507 4.729 1.256 11.86-.162 15.252-2.407.01-.007 2.773-.225 4.951 12.5.838 4.907.194 12.185.194 12.185l1.753-.267c.975-14.262-4.201-26.124-4.201-26.124s8.784-6.458 4.899-13.668z" fill="#6BB7BF"/><path d="M145.444 83.958s-10.579-4.422-6.791-12.466c0 0 3.187-5.038 7.031-6.67 0 0-.845 11.455 1.307 11.48 2.152.026.018-12.832.018-12.832s9.908-6.195 14.065-6.26c0 0-5.254 11.686-3.161 11.185 2.093-.5 8.126-12.41 8.126-12.41s10.52-3.189 12.964 2.951c2.444 6.14.019 9.621-1.528 10.197-1.547.575-11.774 1.593-11.359 2.883.416 1.29 7.553 2.624 11.265 1.003 0 0-3.058 10.903-8.689 11.003-5.632.1-7.746-3.138-11.225-3.014-3.478.125-5.894 1.334-4.064 2.062 1.829.727 7.595-.548 10.648 1.494 3.054 2.042 5.474 3.24.42 4.878-5.053 1.637-14.412 2.024-16.72-1.726l-2.307-3.758z" fill="#86D1CD"/><path d="M174.32 61.46s-26.834 12.108-28.878 22.498c0 0 .643 4.472-1.556 9.933l.224 1.98s2.153-7.06 3.639-8.163c.002 0-7.222-8.008 26.571-26.247z" fill="#6BB7BF"/><path d="M143.884 93.89s-3.558 6.978-.207 14.598l1.072-.42s-2.063-8.58-.31-13.21c1.754-4.63-.555-.967-.555-.967zM105.111 36.056c4.332 4.59 2.08 13.706 2.08 13.706s-9.282 1.674-13.62-2.917c-4.34-4.59-2.08-13.705-2.08-13.705s9.282-1.674 13.62 2.916z" fill="#6BB7BF"/><path d="M105.111 36.056c4.332 4.59 2.08 13.706 2.08 13.706l-15.7-16.622s9.282-1.674 13.62 2.916z" fill="#86D1CD"/><path d="M155.001 50.636c-2.262 2.607-7.375 1.906-7.375 1.906s-1.444-4.925.819-7.538c2.263-2.612 7.375-1.906 7.375-1.906s1.444 4.928-.819 7.538z" fill="#6BB7BF"/><path d="M155.001 50.635c-2.262 2.608-7.375 1.907-7.375 1.907l8.194-9.44s1.444 4.924-.819 7.533z" fill="#86D1CD"/><path d="m168.569 94.975-.003.042-1.024 15.669-3.807 58.177h-71.16l-4.191-57.381-1.154-15.814-.05-.694h81.389z" fill="#EE9849"/><path d="m168.566 95.016-1.024 15.669c-5.363-1.858-20.259-6.322-39.668-6.322-24.51 0-39.49 7.119-39.49 7.119L87.23 95.667l81.336-.651z" fill="#E58638"/><path d="M171.042 103.258H84.599l-.99-10h88.53l-1.097 10z" fill="#EE9849"/><path d="M165.057 172H90.85l-.85-4h76l-.943 4z" fill="#E58638"/><path d="M128.594 170.628v-.601s-2.796-3.087-3.655-4.659l-2.361-4.339-3.094.761 3.919 5.531 5.191 3.307z" fill="#FFB27D"/><path d="M111.342 91.03c.541-2.21-.242-3.24-.948-3.787-.336-.814-.722-1.4-1.109-1.621-.713-.403-1.568-.448-2.166-.41.132-.11.289-.184.457-.216-.371-.055-1.198.308-1.198.308-5.157-1.977-5.966 5.574-5.856 7.329.109 1.755.092 3.82-2.59 5.202-5.117 2.638 1.7 12.577 1.7 12.577-.13-1.418 6.445-8.899 9.876-11.14.835-1.223 1.134-3.386 1.154-3.554-.144 1.713-.439 2.674-.702 3.215 1.565-1.43 1.796-4.867 1.382-7.903z" fill="#A9453D"/><path d="M109.307 99.385c.016.008-1.657.873-2.916.53-1.184-.321-1.959-1.847-1.941-1.852.501-.103.646-.785.635-3.73l.227.044 3.816.751s-.086 1.194-.088 2.317c-.009.944.049 1.84.267 1.94z" fill="#FFB27D"/><path d="M109.127 95.128s-.086 1.194-.089 2.317c-2.132-.06-3.26-1.995-3.722-3.068l3.811.751z" fill="#ED975D"/><path d="m124.315 163.851-2.021.062-2.187.067s-5.054-5.596-7.885-14.565a74.991 74.991 0 0 0-.206-.633c-1.547-4.498-4.765-10.145-6.459-15.256a72.472 72.472 0 0 1-.729-2.305c-.07-.232-.138-.461-.207-.686-1.249-4.314-1.61-7.148-1.943-10.175l12.233.097s1.976 20.673 9.404 43.394z" fill="#2A4E96"/><path d="M113.2 113.463c-.031 5.792.854 8.277.854 8.277s-5.237 2.647-11.462.699c-.074-.024-5.157-1.177-5.157-1.177.103-.235 1.031-4.137 1.134-4.353 1.314-2.807 2.313-4.039 2.468-4.903.29-1.611.296-3.283.152-4.851a38.726 38.726 0 0 0-1.51-7.62c1.697-.383 3.285-1.058 5.054-1.717.405.504 1.65 1.026 2.723 1.005 1.238-.027 1.642-.555 1.578-1.128 1.322.731 2.372 1.422 2.372 1.422 1.124 1.941 3.404 3.826 3.567 6.803.04.729-1.772 7.381-1.773 7.543z" fill="#E7F1FD"/><path d="M109.836 96.193s-5.047.084-5.054-3.044c-.007-3.127-.657-5.223 2.564-5.407 3.221-.185 3.849 1.007 4.106 2.052.257 1.044-.304 6.297-1.616 6.4z" fill="#FFB27D"/><path d="M109.649 87.663s-1.382 3.67-3.507 4.207c-2.124.538-3.04-.022-3.04-.022s1.626-1.286 1.965-3.529c.004.004 3.544-2.402 4.582-.656z" fill="#A9453D"/><path d="M109.307 87.961s1.031.821 1.283 1.616c.251.796.365 2.435.844 2.38 0 0 1.042-2.494-.129-3.904-1.239-1.496-1.998-.092-1.998-.092z" fill="#A9453D"/><path d="M106.055 169.874c-.171-.94-.498-2.565-.498-2.565l.075-5.765h-3.518l1.317 5.519a5.578 5.578 0 0 1-.27 2.304s-.338 1.532 1.179 1.561c1.517.029 1.887-.114 1.715-1.054z" fill="#FFB27D"/><path d="M103.159 169.367s-.286 1.833-.114 2.602c0 0 .448.029 1.547.029 1.045 0 1.604-.029 1.604-.029s.032-1.972-.247-2.642c.002 0-1.073 1.606-2.79.04z" fill="#1E3D70"/><path d="m117.775 117.484 2.383 7.229-1.359.542-3.941-6.387 2.917-1.384z" fill="#FFB27D"/><path d="M130.391 171.968s-3.044.058-3.56 0c-.515-.057-.912-.985-1.47-2.095-.229-.454-.742-.705-1.267-.842l.025 2.937h-.773l-.798-3.099c-.495-.905-.12-1.722.229-2.437.405 0 1.576.271 3.642 2.586.679.761 1.429 1.033 2.173 1.009.009.007.02.012.031.016 1.717.769 1.768 1.925 1.768 1.925z" fill="#1E3D70"/><path d="M118.368 118.186s-.369-.943-.859-2.135c-.49-1.192-1.722-12.794-2.536-14.524-.814-1.73-3.623-2.84-3.623-2.84l-2.319-.995s2.92 7.175 3.006 8.628c.085 1.453.343 23.746.343 23.746s-.172 1.026 1.803.599c1.975-.428 2.491-.854 2.491-.854s-.722-5.222-1.148-10.349c1.425-.088 2.842-1.276 2.842-1.276z" fill="#2A4E96"/><path d="m122.294 163.915-2.187.067s-5.054-5.596-7.885-14.565a74.991 74.991 0 0 0-.206-.633c-1.547-4.498-4.765-10.145-6.459-15.255a73.316 73.316 0 0 1-.729-2.306c-.07-.232-.138-.461-.207-.686l1.801-1.359s5.408 8.713 7.083 16.913c1.457 7.121 7.282 15.691 8.789 17.824z" fill="#1E3D70"/><path d="M106.613 146.852c.031 3.988-.172 13.155-.694 16.951h-1.937c-1.071 0-1.605-.016-1.605-.016-1.31-6.598-2.241-12.059-2.92-16.764-.555-3.861-1.05-7.171-1.431-10.02-.383-2.868-.649-5.269-.744-7.299-.014-.319-.025-.63-.032-.932a17.964 17.964 0 0 1 0-.884l10.57-1.026c-.137 6.989-1.225 17.673-1.207 19.99z" fill="#2A4E96"/><path d="M103.982 163.803c-1.071 0-1.605-.016-1.605-.016-1.31-6.598-2.241-12.059-2.92-16.764-.555-3.861-1.05-7.171-1.431-10.02-.383-2.868-.649-5.269-.744-7.299l3.878 2.27s-2.475.869-1.53 7.446c.944 6.577 3.037 23.452 4.352 24.383z" fill="#1E3D70"/><path d="M104.486 129.644s-.744 2.677-3.321 2.334c-2.576-.343-6.238-1.879-6.238-1.879s1.101-3.461 2.475-8.003c1.656-5.504 3.713-12.599 4.675-17.075.232-1.006.408-2.025.525-3.051l2.137-4.126s3.187 7.115 3.358 8.91c.171 1.795-3.611 22.89-3.611 22.89z" fill="#2A4E96"/><path d="m101.908 106.479 2.821-8.642c-.009 0-3.563 1.053-5.351 1.95 0 0-1.118 1.436-1.809 4.74 0 0-.731 7.941.9 10.845 0 0 5.152 1.026 13.394-1.794v-1.88s-9.015.47-10.861.684l.906-5.903z" fill="#FFB27D"/><path d="M104.367 110.505c-.115 2.904-.802 8.542-6.927 11.56l-.048.024c1.656-5.504 3.712-12.6 4.675-17.075 1.124 1.672 2.362 3.891 2.3 5.491z" fill="#1E3D70"/><path d="M104.73 97.835s-5.23.368-6.489 3.158c-1.259 2.79-1.659 12.072-.056 14.806 0 0 2.206.626 6.108-.103l.145-.026s1.245-3.033.129-3.632c0 0-3.291.172-2.948-.911.343-1.082 3.111-13.292 3.111-13.292z" fill="#2A4E96"/><path d="m117.838 112.862-.154.493-8.579-2.656a.325.325 0 0 1-.058-.301.245.245 0 0 1 .212-.191l8.579 2.655zM118.458 113.328l-.62-.466-.154.493.774-.027z" fill="#A9453D"/><path d="M119.82 124.513s2.176 1.197 2.463 2.108c.287.911.09 2.82-.256 2.792-.345-.029-.861-2.053-1.148-2.194-.286-.142-.686-.57-.686-.256 0 .314.286.883.143.969-.143.086-.601-.798-.917-.969-.316-.17-.447-1.58-.753-1.958-.306-.379 1.154-.492 1.154-.492zM111.865 111.701s1.947-1.193 2.762-1.009c.816.184 2.899 1.683 1.897 2.007-1.001.324-1.811-.015-2.196.221-.384.236-.669.666-2.463.66-1.795-.006 0-1.879 0-1.879z" fill="#FFB27D"/><path d="M196.283 116.895s-2.475 1.402-3.174 1.402c-.7 0-3.419-.524-4.178-.137-.759.387-2.135 1.939-2.393 2.447-.464.912 1.868.513 2.969-.268a.691.691 0 0 1 .264-.114.694.694 0 0 1 .287 0c.57.125 1.753.339 2.329.129.769-.285 4.824-.6 4.824-.6l-.928-2.859z" fill="#ED975D"/><path d="M215.15 97.789s-2.571 18.176-6.827 19.803c-2.101.804-11.383 2.625-14.129 2.808 0 0-.673-.543-.509-2.753 0 0 9.725-3.552 11.107-5.484 2.055-2.873-1.277-11.744 1.303-14.445 2.581-2.7 6.926-3.859 9.055.07z" fill="#ED7D2B"/><path d="M214.282 136.083a32 32 0 0 1-2.51 3.574c-2.763 3.471-5.771 6.332-6.291 9.036a12.35 12.35 0 0 1-.486 1.731 22.614 22.614 0 0 1-.802 1.944c-1.172 2.534-2.925 5.373-4.676 7.954-3.026 4.461-5.871 8.184-5.871 8.184l-5.219-.222c.207-.52 2.485-6.68 5.529-14.207l3.816-9.44.506-1.249 1.141-2.823 5.136-12.696s11.427-4.31 12.614-1.517c.98 2.301.182 4.555-2.887 9.731z" fill="#599DAD"/><path d="M193.479 167.562s-.266 4.284-1.1 4.345c-.111.008-4.228.008-4.228.008l-5.253-.03s.034-1.259 1.57-1.525 4.105-1.34 5.035-3.36c.982-2.123 3.976.562 3.976.562zM199.171 155.741s3.63 2.321 3.277 3.078c-.046.103-2.052 3.675-2.052 3.675l-2.588 4.548s-1.088-.644-.573-2.107c.515-1.463.825-4.22-.493-6.011-1.386-1.89 2.429-3.183 2.429-3.183z" fill="#163560"/><path d="M196.439 160.027s3.075.294 3.97-3.433c0 0-3.3-11.786-5.329-14.283-.092-.115-.069-.241.054-.379 1.531-1.717 18.539-5.208 20.761-8.649a10.642 10.642 0 0 0 1.436-3.293c.504-2.1.103-3.55.103-3.55l-16.982-.49s-14.103 8.771-15.744 14.734c-.976 3.551 11.731 19.343 11.731 19.343z" fill="#6BB7BF"/><path d="M195.134 141.932c1.531-1.717 18.538-5.209 20.761-8.649a10.637 10.637 0 0 0 1.436-3.294v-2.138l-7.22-1.129s-2.047 6.267-8.11 8.619c-5.678 2.203-6.757 6.102-6.867 6.591z" fill="#5AA9AD"/><path d="M205.099 96.643c3.436.883 9.133-2.283 9.133-2.283s-2.213-1.48-3.032-4.728a9.03 9.03 0 0 1-.113-.504l-1.764-.372-2.624 2.339c.076.887.206 1.769.387 2.64.057.292.123.605.198.938a8.089 8.089 0 0 0-2.185 1.97z" fill="#FFB27D"/><path d="M217.87 110.813c-.493 6.586.155 16.602-.403 18.337-.482 1.496-5.973.607-8.164.103a41.22 41.22 0 0 1-2.809-.761c-2.83-.873-5.914-2.117-6.244-3.042a.843.843 0 0 1-.025-.489c.11-.471.535-.981.585-2.148.056-1.302.048-2.836.097-4.486 0-.186 0-.388.025-.572V117.584c.048-1.838.145-3.773.257-5.69.071-1.205.154-2.398.249-3.54.246-2.951.579-5.574 1.02-7.233.722-2.704 2.305-4.467 3.75-5.76l1.043-.891c1.167.253 2.545.085 3.791-.502 1.349-.637 1.815-1.094 2.05-.923 3.118 2.39 5.358 9.716 4.778 17.768z" fill="#F99746"/><path d="M206.495 128.496c-2.83-.873-5.915-2.117-6.245-3.042a.707.707 0 0 1-.031-.102c0-.13 0-.258.006-.387.11-.471.535-.981.585-2.148.056-1.302.048-2.836.097-4.486 0-.186 0-.388.025-.572V117.588l11.448-14.503s7.69 15.928-5.885 25.411z" fill="#ED7D2B"/><path d="M206.699 91.095c.076.887.206 1.769.387 2.64 2.563-.82 3.726-3.127 4.114-4.103a9.03 9.03 0 0 1-.113-.504l-1.764-.372-2.624 2.339z" fill="#ED975D"/><path d="M206.354 92.567s5.589-.923 4.951-4.381c-.639-3.458-.341-5.9-3.936-5.454-3.595.447-4.045 1.89-4.115 3.094-.07 1.204 1.63 6.894 3.1 6.741z" fill="#FFB27D"/><path d="m198.08 121.127-13.953.297-3.886-11.903a.262.262 0 0 0-.327-.166.25.25 0 0 0-.151.128.258.258 0 0 0-.028.097.26.26 0 0 0 .013.1l4.039 12.371a.325.325 0 0 0 .31.221l13.998-.297-.015-.848z" fill="#4A75CB"/><path d="M197.813 122.653s-4.574 1.199-6.292 1.074c-1.717-.125-3.141-.938-3.358-1.361-.216-.424-.669-1.175.5-1.037 1.168.139 2.762.386 2.811.162.05-.223-.952-.205-.952-.205s-.303-.438.078-.453c.382-.016 1.494-.316 1.906-.111.413.205.795.964 1.097.933.302-.032 3.827-1.581 3.827-1.581l.383 2.579z" fill="#FFB27D"/><path d="M214.015 98.535s-.54 18.347-4.59 20.432c-1.999 1.026-11.022 3.857-13.731 4.339 0 0-.729-.465-.81-2.679 0 0 9.271-4.598 10.431-6.669 1.724-3.078-2.571-11.533-.31-14.5 2.262-2.968 6.459-4.599 9.01-.923z" fill="#F99746"/><path d="M211.201 89.632s.063-1.186-.672-1.864c0 0 .256-1.188-.216-1.384-.473-.196-.571.802-.787.647-.217-.157-1.181-.901-1.595-1.998-.413-1.097-4.196.232-4.641.429-.444.197-1.856-.528-2.134-1.115 0 0 .787-.627 1.142-1.097.355-.47 2.834-3.642 6.299-2.741 3.466.9 3.937 2.545 3.74 3.955-.197 1.41.282 4.695-1.136 5.168z" fill="#2B478B"/><path d="M229.471 134.327h-26.307c-.53 0-.96.427-.96.955v5.435c0 .528.43.955.96.955h26.307c.53 0 .96-.427.96-.955v-5.435a.957.957 0 0 0-.96-.955z" fill="#F99746"/><path d="m207.477 141.672-.412 1.944-5.988 28.133c-.017.102-.152.173-.31.173-.309 0-.547-.164-.515-.352l4.749-28.81.18-1.088h2.296z" fill="#EFCBAB"/><path d="m207.477 141.672-.412 1.944c-.284-.775-2.063-.856-2.063-.856l.179-1.088h2.296z" fill="#CCA07F"/><path d="M232.136 171.918c-.161 0-.296-.075-.31-.173l-5.988-28.134-.258-1.212-.155-.731h2.3l.179 1.088.141.853 4.608 27.957c.029.192-.209.352-.517.352z" fill="#EFCBAB"/><path d="M228.041 143.614c-.586-.924-2.464-1.21-2.464-1.21l-.155-.731h2.3l.179 1.088.14.853z" fill="#CCA07F"/><path d="M177.178 171.908a.486.486 0 0 1-.362-.054.458.458 0 0 1-.138-.125.457.457 0 0 1-.08-.168l-5.724-22.944-1.104-4.44-2.174-8.717-3.311-13.271 3.112-.205 1.831 8.997 2.631 12.928 1.325 6.517 4.278 21.034a.373.373 0 0 1-.284.448z" fill="#F9DDBF"/><path d="m169.224 130.984-.044.127s-1.528 2.21-1.588 4.349l-3.312-13.271 3.113-.205 1.831 9z" fill="#EAC8A9"/><path d="m166.503 122.189-5.486 21.988-1.107 4.44-5.724 22.944a.492.492 0 0 1-.218.293.49.49 0 0 1-.363.054.376.376 0 0 1-.279-.441l4.278-21.035 1.325-6.516 4.461-21.93 3.113.203z" fill="#F9DDBF"/><path d="m161.017 144.177-1.107 4.44c-1.307.083-2.307 1.816-2.307 1.816l1.326-6.516 2.078-.206s.007.177.01.466z" fill="#EAC8A9"/><path d="m148.16 122.189-5.486 21.988-1.108 4.44-5.727 22.944a.457.457 0 0 1-.08.168.483.483 0 0 1-.501.179.38.38 0 0 1-.28-.441l4.279-21.035 1.326-6.516 4.461-21.929 3.116.202z" fill="#F9DDBF"/><path d="m142.674 144.177-1.108 4.44c-1.308.083-2.306 1.816-2.306 1.816l1.323-6.516 2.078-.206s.01.177.013.466z" fill="#EAC8A9"/><path d="M162.17 147.483h-26.409l9.354-34.375h25.758l-8.703 34.375z" fill="#F9DDBF"/><path d="M161.382 147.483h-26.408l9.354-34.375h25.758l-8.704 34.375z" fill="#FCECDB"/><path d="M161.923 125.471c-.595 1.937-1.832 3.715-3.404 5.102-1.362 1.201-2.372 2.702-2.853 4.256l-.689 2.241c-.439 1.426-1.968 2.592-3.404 2.592h-4.167c-1.433 0-2.247-1.166-1.809-2.592l.69-2.245c.479-1.557.38-3.057-.244-4.261-.722-1.399-.862-3.19-.25-5.143 1.387-4.429 6.073-7.983 10.526-7.983.472-.001.944.042 1.408.13.104.018.196.04.292.062 3.367.799 5.083 4.01 3.904 7.841z" fill="#FCEBD9"/><path d="M161.923 125.471c-.595 1.937-1.832 3.715-3.404 5.102-1.362 1.201-2.372 2.702-2.853 4.257l-.689 2.24c-.439 1.426-1.968 2.592-3.404 2.592h-.641c-1.433 0-2.245-1.166-1.808-2.592l.69-2.245c.478-1.557.379-3.057-.244-4.261-.722-1.398-.862-3.19-.25-5.143 1.198-3.825 4.855-6.996 8.699-7.791 3.366.799 5.083 4.01 3.904 7.841z" fill="#FAE2C9"/><path d="M154.648 130.928c.412-1.354-.353-2.456-1.714-2.456-1.362 0-2.808 1.102-3.223 2.456-.293.952.197 1.706.722 2.104.009.005.811.632.544 1.539l-.113.379a1 1 0 0 0-.032.095 1429.28 1429.28 0 0 1-1.495 4.852h.157c.011-.039 1.1-3.552 1.523-4.948.611-1.572 1.267-1.713 1.663-1.931.27-.14.531-.297.781-.47.583-.459.994-.99 1.187-1.62zm-2.035 2.042c-.794.354-1.145.838-1.42 1.299a1.321 1.321 0 0 0-.283-.89 1.875 1.875 0 0 0-.412-.403c-.516-.368-.905-1.143-.626-2.052.389-1.268 1.715-2.207 2.99-2.207 1.276 0 2.024.939 1.634 2.207a3.302 3.302 0 0 1-1.116 1.58 4.164 4.164 0 0 1-.767.466z" fill="#EE9849"/><path d="m151.558 139.662-.03.069-.383.873-.103.23-.103.232-.383.873-.103.23-.103.232-.056.127c-.195.443-.807.782-1.416.782h-1.371a1.392 1.392 0 0 1-.396-.054.961.961 0 0 1-.28-.133h-.006a.659.659 0 0 1-.159-.157.566.566 0 0 1-.097-.426l.056-.337.034-.214.034-.205.132-.809.035-.213.034-.21.143-.876 4.521-.014z" fill="#AFCDFB"/><path d="M151.014 139.662h-.775c-1.362.359-2.712.718-3.337.876l-.034.211-.035.212c.505-.128 1.721-.446 4.695-1.231l.03-.069-.544.001zM146.668 141.983l-.034.214c.585-.151 1.793-.468 4.311-1.135l.103-.232.103-.23c-1.591.421-3.516.93-4.444 1.171l-.039.212zM146.831 143.123h.006c.086.059.18.104.28.133.69-.181 1.715-.452 3.239-.855l.103-.232.104-.23c-1.362.36-2.923.773-3.888 1.026a.669.669 0 0 0 .156.158z" fill="#9ABCEF"/><path d="M160.798 141.993h-.184a.051.051 0 0 1-.037-.015.052.052 0 0 1-.016-.037c0-.007.002-.014.004-.02a.066.066 0 0 1 .012-.017.045.045 0 0 1 .017-.011.045.045 0 0 1 .02-.004h.184c.007 0 .013.001.02.004a.045.045 0 0 1 .017.011.045.045 0 0 1 .011.017.045.045 0 0 1 .004.02.051.051 0 0 1-.052.052zm-.71 0h-.528a.051.051 0 0 1-.037-.015.052.052 0 0 1-.016-.037c0-.007.002-.014.004-.02a.066.066 0 0 1 .012-.017.039.039 0 0 1 .017-.011.045.045 0 0 1 .02-.004h.527c.007 0 .014.001.02.004a.039.039 0 0 1 .017.011.066.066 0 0 1 .012.017.065.065 0 0 1 .004.02.052.052 0 0 1-.016.037.051.051 0 0 1-.037.015h.001zm-1.054 0h-.527a.051.051 0 0 1-.037-.015.052.052 0 0 1-.016-.037c0-.007.002-.014.004-.02a.066.066 0 0 1 .012-.017.039.039 0 0 1 .017-.011.045.045 0 0 1 .02-.004h.527c.007 0 .014.001.02.004a.039.039 0 0 1 .017.011.066.066 0 0 1 .012.017.065.065 0 0 1 .004.02.065.065 0 0 1-.004.02.057.057 0 0 1-.012.018.078.078 0 0 1-.018.011.044.044 0 0 1-.02.003h.001zm-1.053 0h-.527a.051.051 0 0 1-.037-.015.052.052 0 0 1-.016-.037c0-.007.002-.014.004-.02a.066.066 0 0 1 .012-.017.039.039 0 0 1 .017-.011.045.045 0 0 1 .02-.004h.527c.007 0 .014.001.02.004a.039.039 0 0 1 .017.011.066.066 0 0 1 .012.017.065.065 0 0 1 .004.02.065.065 0 0 1-.004.02.057.057 0 0 1-.012.018.078.078 0 0 1-.018.011.044.044 0 0 1-.02.003h.001zm-1.054 0h-.527a.051.051 0 0 1-.037-.015.052.052 0 0 1-.016-.037c0-.007.002-.014.004-.02a.066.066 0 0 1 .012-.017.039.039 0 0 1 .017-.011.045.045 0 0 1 .02-.004h.527c.007 0 .014.001.02.004a.045.045 0 0 1 .017.011.066.066 0 0 1 .012.017.065.065 0 0 1 .004.02.046.046 0 0 1-.005.02.042.042 0 0 1-.011.018.078.078 0 0 1-.018.011.044.044 0 0 1-.02.003h.001zm-1.054 0h-.526a.051.051 0 0 1-.037-.015.052.052 0 0 1-.016-.037c0-.007.001-.014.004-.02a.1.1 0 0 1 .011-.017.042.042 0 0 1 .018-.011.045.045 0 0 1 .02-.004h.526c.007 0 .014.001.02.004a.034.034 0 0 1 .017.011.066.066 0 0 1 .012.017.065.065 0 0 1 .004.02.046.046 0 0 1-.005.02.042.042 0 0 1-.011.018.078.078 0 0 1-.018.011.044.044 0 0 1-.02.003h.001zm-1.053 0h-.527a.051.051 0 0 1-.037-.015.052.052 0 0 1-.016-.037c0-.007.002-.014.004-.02a.066.066 0 0 1 .012-.017.039.039 0 0 1 .017-.011.045.045 0 0 1 .02-.004h.523c.007 0 .014.001.02.004a.045.045 0 0 1 .017.011.045.045 0 0 1 .011.017.045.045 0 0 1 .004.02.051.051 0 0 1-.052.052h.004zm-1.054 0h-.526c-.007.001-.014-.001-.021-.003a.1.1 0 0 1-.017-.011.057.057 0 0 1-.012-.018.065.065 0 0 1-.004-.02c0-.007.002-.014.004-.02a.052.052 0 0 1 .012-.017.045.045 0 0 1 .017-.011.052.052 0 0 1 .021-.004h.526c.007 0 .014.001.02.004a.034.034 0 0 1 .017.011.066.066 0 0 1 .012.017.044.044 0 0 1 .003.02.034.034 0 0 1-.004.02.042.042 0 0 1-.011.018.078.078 0 0 1-.018.011.044.044 0 0 1-.02.003h.001zm-1.053 0h-.527a.051.051 0 0 1-.037-.015.052.052 0 0 1-.016-.037c0-.007.002-.014.004-.02a.066.066 0 0 1 .012-.017.039.039 0 0 1 .017-.011.045.045 0 0 1 .02-.004h.527c.007 0 .014.001.02.004a.045.045 0 0 1 .017.011.045.045 0 0 1 .011.017.046.046 0 0 1 .005.02.046.046 0 0 1-.005.02.042.042 0 0 1-.011.018.078.078 0 0 1-.018.011.044.044 0 0 1-.02.003h.001zM159.31 116.894a.052.052 0 0 1-.029-.009.057.057 0 0 1-.019-.024.051.051 0 0 1-.003-.03.059.059 0 0 1 .014-.027l.373-.37a.045.045 0 0 1 .017-.013.065.065 0 0 1 .02-.005c.008 0 .015.001.021.004a.057.057 0 0 1 .03.029c.002.007.004.014.004.021a.08.08 0 0 1-.005.021.07.07 0 0 1-.013.017l-.372.37a.055.055 0 0 1-.038.016zm.746-.741a.052.052 0 0 1-.021-.004.066.066 0 0 1-.017-.012.05.05 0 0 1-.015-.037.05.05 0 0 1 .015-.036l.373-.372a.053.053 0 0 1 .037-.015c.014 0 .028.005.038.015.009.01.015.024.015.038a.056.056 0 0 1-.015.037l-.373.37a.052.052 0 0 1-.037.016zm.745-.742a.048.048 0 0 1-.029-.009.055.055 0 0 1-.02-.023.054.054 0 0 1-.003-.031.046.046 0 0 1 .015-.026l.059-.061a.06.06 0 0 1 .038-.014h.441c.007 0 .014.001.02.003a.043.043 0 0 1 .017.012.066.066 0 0 1 .012.017.065.065 0 0 1 .004.02.065.065 0 0 1-.004.02.066.066 0 0 1-.012.017.045.045 0 0 1-.017.011.045.045 0 0 1-.02.004h-.419l-.045.045a.062.062 0 0 1-.019.012.076.076 0 0 1-.021.003h.003zm6.404-.06h-.108a.051.051 0 0 1-.037-.015.052.052 0 0 1-.016-.037c0-.014.006-.027.016-.037a.051.051 0 0 1 .037-.015h.108c.014 0 .028.005.038.015.009.01.015.023.015.037a.056.056 0 0 1-.015.037.054.054 0 0 1-.038.015zm-.635 0h-.527a.051.051 0 0 1-.037-.015.052.052 0 0 1-.016-.037c0-.014.006-.027.016-.037a.051.051 0 0 1 .037-.015h.53c.014 0 .027.005.037.015.01.01.016.023.016.037a.052.052 0 0 1-.016.037.051.051 0 0 1-.037.015h-.003zm-1.053 0h-.527a.051.051 0 0 1-.037-.015.052.052 0 0 1-.016-.037c0-.007.002-.014.004-.02a.066.066 0 0 1 .012-.017.043.043 0 0 1 .017-.012.064.064 0 0 1 .02-.003h.527c.014 0 .027.005.037.015.01.01.016.023.016.037a.052.052 0 0 1-.016.037.051.051 0 0 1-.037.015zm-1.054 0h-.527a.051.051 0 0 1-.037-.015.052.052 0 0 1-.016-.037c0-.014.006-.027.016-.037a.051.051 0 0 1 .037-.015h.527c.014 0 .027.005.037.015.01.01.016.023.016.037a.052.052 0 0 1-.016.037.051.051 0 0 1-.037.015zm-1.054 0h-.526a.051.051 0 0 1-.037-.015.052.052 0 0 1-.016-.037c0-.007.002-.014.004-.02a.066.066 0 0 1 .012-.017.043.043 0 0 1 .017-.012.064.064 0 0 1 .02-.003h.526c.007 0 .014.001.02.003a.057.057 0 0 1 .018.012.1.1 0 0 1 .011.017.065.065 0 0 1 .004.02.052.052 0 0 1-.016.037.051.051 0 0 1-.037.015zm-1.053 0h-.527a.051.051 0 0 1-.037-.015.052.052 0 0 1-.016-.037c0-.014.006-.027.016-.037a.051.051 0 0 1 .037-.015h.527c.014 0 .027.005.037.015.01.01.016.023.016.037a.052.052 0 0 1-.016.037.051.051 0 0 1-.037.015zM166.523 116.527h-4.321a.229.229 0 0 1-.162-.067.234.234 0 0 1-.068-.162.229.229 0 0 1 .23-.228h4.321a.23.23 0 0 1 .229.228.232.232 0 0 1-.229.229zM160.163 143.489h-4.316a.234.234 0 0 1-.162-.068.228.228 0 0 1 .162-.39h4.32a.229.229 0 0 1 .23.229c0 .03-.006.06-.018.088a.224.224 0 0 1-.126.124.232.232 0 0 1-.09.017zM143.814 132.581h-3.327a.203.203 0 0 0-.203.202v.053c0 .111.091.202.203.202h3.327a.203.203 0 0 0 .204-.202v-.053a.203.203 0 0 0-.204-.202z" fill="#EAC8A9"/></svg>